#!OML:ASF F:\VICON\USERDATA\INSTALL\Justin_Nancy\Justin_Nancy.ASF
:FULLY-SPECIFIED
:DEGREES
267
root -17.7032 16.6577 5.35254 -235.594 -80.4485 238.787
lowerback 7.1077 3.53531 6.76434
upperback -0.237994 5.33116 4.29107
thorax -4.02741 2.48747 0.140078
lowerneck -16.696 -5.45045 -6.58129
upperneck 19.733 -6.73715 3.45099
head 9.31671 -3.31374 1.38164
rclavicle 4.21423e-014 3.18055e-014
rhumerus -19.9531 -5.49361 -77.7723
rradius 42.874
rwrist 0.516787
rhand -16.4945 12.545
rfingers 7.12502
rthumb 9.72304 -17.2105
lclavicle 4.21423e-014 3.18055e-014
lhumerus -36.3607 11.8994 84.3189
lradius 23.3336
lwrist -11.2763
lhand -12.6607 24.8813
lfingers 7.12502
lthumb 13.4202 54.429
rfemur 3.65668 7.53706 32.8354
rtibia 32.3158
rfoot -24.2093 -10.0017
rtoes -0.455014
lfemur -28.9314 14.0416 -16.376
ltibia 12.6436
lfoot -23.8097 7.29055
ltoes -22.1479
268
root -17.919 16.6347 5.38989 -236.909 -80.5251 240.068
lowerback 7.03878 3.13426 6.86074
upperback -0.248009 4.7984 4.43169
thorax -4.02618 2.22038 0.286677
lowerneck -16.4983 -5.21263 -7.28729
upperneck 19.5908 -6.32217 3.85708
head 9.2484 -3.13184 1.69741
rclavicle -3.56818e-014 1.51076e-014
rhumerus -19.594 -3.93394 -77.7572
rradius 43.3546
rwrist -0.127617
rhand -16.373 12.4211
rfingers 7.12502
rthumb 9.84028 -17.329
lclavicle -3.56818e-014 1.51076e-014
lhumerus -36.6643 13.1062 83.9204
lradius 23.0745
lwrist -11.8837
lhand -14.2979 25.5748
lfingers 7.12502
lthumb 11.8419 55.2199
rfemur 4.36202 7.80451 32.9125
rtibia 32.5978
rfoot -23.8156 -10.1991
rtoes -2.07859
lfemur -29.2595 12.845 -15.8452
ltibia 14.2719
lfoot -21.2909 6.76596
ltoes -25.9479
269
root -18.1416 16.6187 5.41281 -236.102 -80.5014 238.88
lowerback 7.24488 3.04931 6.47279
upperback -0.182886 4.67324 4.67427
thorax -4.13033 2.16453 0.752489
lowerneck -16.5504 -5.12047 -8.20262
upperneck 19.9993 -6.04135 4.15647
head 9.4256 -3.04215 1.98579
rclavicle -4.3186e-014 -4.85035e-014
rhumerus -19.4847 -2.90988 -77.293
rradius 43.9373
rwrist -0.921504
rhand -16.2428 12.3481
rfingers 7.12502
rthumb 9.96592 -17.396
lclavicle -4.3186e-014 -4.85035e-014
lhumerus -36.8597 13.0928 84.0199
lradius 22.8728
lwrist -11.2619
lhand -15.218 26.0797
lfingers 7.12502
lthumb 10.9545 55.7739
rfemur 5.382 8.3144 32.8946
rtibia 33.0491
rfoot -23.2442 -10.2218
rtoes -4.06919
lfemur -29.2327 12.8442 -15.8157
ltibia 15.9663
lfoot -19.7528 5.98603
ltoes -28.6269
270
root -18.3707 16.6064 5.44147 -235.401 -80.5593 237.743
lowerback 7.40104 3.02805 6.11599
upperback -0.0476452 4.62236 4.81846
thorax -4.11801 2.14903 1.09779
lowerneck -16.658 -5.08637 -8.46827
upperneck 20.2735 -5.88842 3.98754
head 9.53557 -3.01253 1.98905
rclavicle 1.05853e-014 -1.03368e-014
rhumerus -19.6323 -2.5181 -76.8774
rradius 44.8131
rwrist -1.85315
rhand -16.5425 12.0583
rfingers 7.12502
rthumb 9.67674 -17.6995
lclavicle 1.05853e-014 -1.03368e-014
lhumerus -36.934 12.7947 84.2116
lradius 22.7443
lwrist -10.7268
lhand -16.3141 26.9394
lfingers 7.12502
lthumb 9.89709 56.6868
rfemur 6.34886 8.46578 32.6655
rtibia 33.5685
rfoot -22.3692 -10.0501
rtoes -6.46925
lfemur -29.2514 13.2754 -16.2029
ltibia 17.9629
lfoot -17.2029 5.45094
ltoes -31.4383
271
root -18.6034 16.6003 5.48557 -235.354 -80.973 237.517
lowerback 7.24519 2.78425 5.69341
upperback 0.0274933 4.24575 4.95775
thorax -4.00083 1.9761 1.52282
lowerneck -16.619 -5.00267 -8.88004
upperneck 20.2297 -5.64764 3.92024
head 9.50928 -2.94024 2.06676
rclavicle 5.02925e-014 8.74653e-015
rhumerus -19.8978 -1.57855 -76.4666
rradius 45.809
rwrist -2.62696
rhand -16.6088 11.7079
rfingers 7.12502
rthumb 9.61285 -18.0528
lclavicle 5.02925e-014 8.74653e-015
lhumerus -37.1054 13.4789 84.2928
lradius 22.5686
lwrist -10.7162
lhand -17.7268 27.9829
lfingers 7.12502
lthumb 8.53401 57.7905
rfemur 6.93406 8.30942 32.1171
rtibia 34.1584
rfoot -21.3219 -9.78593
rtoes -8.18647
lfemur -29.4583 12.6236 -16.6318
ltibia 20.0831
lfoot -18.0096 4.89533
ltoes -30.3431
